<svg width="1440" height="2634" viewBox="0 0 1440 2634" fill="none" xmlns="http://www.w3.org/2000/svg">
    <g clip-path="url(#clip0_0_4)">
        <rect width="1440" height="2634" fill="black" />
        <path opacity="0.3"
            d="M956.826 2341.67C1088.71 2441.62 1218.35 2492.65 1246.39 2455.65C1274.43 2418.65 1190.25 2307.63 1058.37 2207.68C984.462 2151.67 914.923 2118.96 903.052 2134.62C891.182 2150.28 941.476 2208.39 1015.39 2264.4C1147.27 2364.35 1276.91 2415.38 1304.95 2378.38C1332.99 2341.38 1248.81 2230.36 1116.93 2130.41C1043.02 2074.4 973.483 2041.69 961.612 2057.35C949.742 2073.01 1000.04 2131.12 1073.95 2187.13C1205.83 2287.08 1335.61 2337.93 1363.82 2300.7C1392.03 2263.47 1308 2152.27 1176.11 2052.32C1102.2 1996.31 1032.67 1963.6 1020.79 1979.26C1008.92 1994.92 1059.22 2053.03 1133.13 2109.04C1265.01 2208.99 1394.65 2260.02 1422.69 2223.02C1450.73 2186.02 1366.55 2075 1234.67 1975.05C1160.76 1919.04 1091.23 1886.33 1079.36 1901.99C1067.48 1917.65 1117.78 1975.76 1191.69 2031.77C1323.57 2131.72 1453.21 2182.75 1481.25 2145.75C1509.29 2108.75 1425.11 1997.73 1293.23 1897.78C1219.32 1841.77 1149.78 1809.06 1137.92 1824.72C1126.04 1840.38 1176.34 1898.49 1250.25 1954.5C1382.13 2054.45 1511.77 2105.48 1539.81 2068.48C1567.85 2031.48 1483.68 1920.46 1351.79 1820.51C1277.88 1764.5 1208.34 1731.79 1196.47 1747.45C1184.61 1763.11 1234.9 1821.22 1308.81 1877.23C1440.69 1977.18 1570.47 2028.03 1598.68 1990.8C1626.9 1953.57 1542.86 1842.37 1410.98 1742.42"
            stroke="#1DD9F0" stroke-width="3.35294" stroke-linecap="round" />
        <path
            d="M911.875 547.715C890.957 551.375 875.105 560.657 876.468 568.446C877.831 576.235 895.893 579.582 916.811 575.921C928.534 573.87 937.57 569.534 936.993 566.236C936.416 562.939 926.445 561.929 914.722 563.981C893.804 567.641 877.952 576.923 879.315 584.712C880.678 592.501 898.74 595.848 919.658 592.187C931.381 590.136 940.417 585.8 939.84 582.503C939.263 579.205 929.292 578.196 917.568 580.247C896.65 583.908 880.805 593.228 882.176 601.065C883.548 608.902 901.617 612.287 922.535 608.627C934.258 606.575 943.294 602.239 942.717 598.942C942.14 595.645 932.168 594.635 920.445 596.687C899.527 600.347 883.675 609.629 885.038 617.418C886.401 625.207 904.463 628.553 925.381 624.893C937.104 622.841 946.14 618.506 945.563 615.208C944.986 611.911 935.015 610.901 923.292 612.953C902.374 616.613 886.522 625.895 887.885 633.684C889.248 641.473 907.31 644.82 928.228 641.159C939.951 639.108 948.987 634.771 948.41 631.475C947.833 628.177 937.862 627.168 926.138 629.219C905.22 632.88 889.368 642.162 890.731 649.95C892.094 657.739 910.156 661.086 931.075 657.425C942.798 655.374 951.833 651.038 951.256 647.741C950.679 644.444 940.708 643.434 928.985 645.485C908.067 649.146 892.221 658.466 893.593 666.303C894.964 674.14 913.033 677.525 933.951 673.865"
            stroke="#1DD9F0" stroke-width="3.35294" stroke-linecap="round" />
        <path
            d="M59.6082 1099.05C52.538 1101.39 47.0306 1108.21 44.9889 1116.8C42.9297 1108.26 37.4364 1101.47 30.3917 1099.14C37.4619 1096.81 42.9693 1089.98 45.011 1081.4C47.0702 1089.94 52.5635 1096.72 59.6082 1099.05Z"
            stroke="#1DD9F0" stroke-width="1.73913" />
        <path
            d="M1191.61 970.052C1184.54 972.389 1179.03 979.215 1176.99 987.8C1174.93 979.258 1169.44 972.473 1162.39 970.145C1169.46 967.807 1174.97 960.982 1177.01 952.396C1179.07 960.938 1184.56 967.723 1191.61 970.052Z"
            stroke="#1DD9F0" stroke-width="1.73913" />
    </g>
    <defs>
        <clipPath id="clip0_0_4">
            <rect width="1440" height="2634" fill="white" />
        </clipPath>
    </defs>
</svg>